<?xml version="1.0" encoding="utf-8"?>
<!-- Generator: Adobe Illustrator 15.1.0, SVG Export Plug-In . SVG Version: 6.00 Build 0)  -->
<!DOCTYPE svg PUBLIC "-//W3C//DTD SVG 1.1//EN" "http://www.w3.org/Graphics/SVG/1.1/DTD/svg11.dtd">
<svg version="1.1" xmlns="http://www.w3.org/2000/svg" xmlns:xlink="http://www.w3.org/1999/xlink" x="0px" y="0px" width="16px"
	 height="16px" viewBox="0 0 16 16" enable-background="new 0 0 16 16" xml:space="preserve">
<g id="Ebene_2">
</g>
<g id="Ebene_1">
	<path fill-rule="evenodd" clip-rule="evenodd" fill="#EFEFEF" d="M-2-2v21h21V-2H-2z M15.2,8.4c0,0-2.7,0.1-2.9,1
		c-0.2,0.9,0.5,1,1.2,1.2c0.7,0.2,1.9,0.6,1,1.2c-0.5,0.1-1-0.5-1.7-0.8c-0.6-0.2-1.4-0.3-1.2,0.1S12,12,12,12s-0.3-0.4-0.7-0.4
		c-0.4,0-1.1,0.2-1.2,0.8c0,0.5,0.4,1.2,0.4,1.5s-0.3,1.2-0.5,0.2c-0.1-1,0.1-1.6-0.6-1.7c-0.7-0.2-1,0.4-1,0.4s-0.3-0.7-0.6-0.7
		c-0.3,0-1,0.4-0.9,1c0.1,0.5-0.7,0.4-0.5,0c0.2-0.4,0.6-1.1,0.3-1.3c-0.3-0.3-1-0.5-1.1-0.3c-0.2,0.3-0.6,1.4-1.1,1.6
		C4,13.2,3,13,3.4,12.4c0.4-0.6,0.8-1,1.2-1.3s0.8-0.5,0.5-0.9C4.8,9.9,4.2,9.7,4,9.9C4,9.9,4,10,3.9,10C3.5,10.6,3,10.4,3.3,9.9
		c0.4-0.6,0.5-0.1,0.9-0.7c0.4-0.6,0.3-0.7-0.3-0.8C3.2,8.4,2.7,8.4,2.7,8.4s1.5-0.2,1.6-0.8c0.1-0.6-0.7-0.8-1-0.8
		C2.4,6.8,2.1,6.1,3,6.3s1.7,0.2,1.9,0.1c0.3-0.1,0.2-1,0.2-1s0.7,0.2,0.7-0.3c0-0.5-0.6-1.2-0.8-1.5c-0.2-0.2,0.4-0.9,0.8,0
		c0.4,1,0.9,0.8,1,0.5s0-1.5,0-1.5s0.4,1.4,0.9,1.4c0.5,0,0.9-0.6,0.9-0.6s1.1,1,1.6,0.8c0.5-0.3,0.8-1.1,0.9-1.7
		c0.1-0.5,1-1.6,1.4-1c0.4,0.6,0.2,1-0.3,1.4c-1.3,1.1-1,3,0.7,2.3c0.8-0.3-0.5,0.2-0.6,0.9s0,1.9,2.1,2S15.2,8.4,15.2,8.4z"/>
</g>
</svg>
