<svg id="Ebene_1" xmlns="http://www.w3.org/2000/svg" viewBox="0 0 264 88"><style>.st0{fill:#000444}.st1{fill:none;stroke:#000444;stroke-width:1.5}</style><title>default-skin 2</title><path id="Shape" class="st0" d="M67 59.5v3.8c-6.3.8-9.2 5.8-10 9.7 2.2-2.8 5.6-5.1 10-5.1v3.6l6-5.9-6-6.1z"/><path id="Shape_1_" class="st0" d="M13 29v-5h2v3h3v2h-5zm0-14h5v2h-3v3h-2v-5zm18 0v5h-2v-3h-3v-2h5zm0 14h-5v-2h3v-3h2v5z"/><path class="st0" d="M62 24v5h-2v-3h-3v-2h5zm0-4h-5v-2h3v-3h2v5zm8 0v-5h2v3h3v2h-5zm0 4h5v2h-3v3h-2v-5zM20.6 66l-5.7-5.7 1.4-1.4 5.7 5.7 5.7-5.7 1.4 1.4-5.7 5.7 5.7 5.7-1.4 1.4-5.7-5.7-5.7 5.7-1.4-1.4 5.7-5.7zM110.9 59l-5.7-5.7 1.4-1.4 7.1 7.1-7.1 7.1-1.4-1.4 5.7-5.7zM153.6 59l5.7 5.7-1.4 1.4-7.1-7.1 7.1-7.1 1.4 1.4-5.7 5.7z"/><path id="Rectangle-11" class="st0" d="M161 28.5l-3.2-3.2-1.4 1.4 3.2 3.2 1.4-1.4z"/><path id="Oval-1" class="st1" d="M152.5 27c3 0 5.5-2.5 5.5-5.5s-2.5-5.5-5.5-5.5-5.5 2.5-5.5 5.5 2.5 5.5 5.5 5.5z"/><path class="st0" d="M150 21h5v1h-5v-1z"/><g><path class="st0" d="M117 28.5l-1.4 1.4-3.2-3.2 1.4-1.4 3.2 3.2z"/><path class="st1" d="M108.5 27c3 0 5.5-2.5 5.5-5.5s-2.5-5.5-5.5-5.5-5.5 2.5-5.5 5.5 2.5 5.5 5.5 5.5z"/><path class="st0" d="M106 21h5v1h-5v-1z"/><path class="st0" d="M109 19l-.1 5h-1l.1-5h1z"/></g></svg>