<svg xmlns="http://www.w3.org/2000/svg" width="26" height="26" viewBox="0 0 26 26"><g fill="#D4D4D4"><path d="M6.587 6.194c.333-.071 1.3-.719 2.824-1.488 1.523-.768 3.755-.738 5.372-.307 1.617.432 2.521 1.516 2.521 1.516s-1.934-.592-3.734-.592c-2.026 0-3.749.333-4.916 1.358-1.5 1.42-.048 1.398.442 1.36.49-.04.834-.123 2.378-.34 1.543-.215 2.941-.53 4.382.598 2.836-1.197 2.879-1.835 3.529-2.976.65-1.142.478-3.514.478-3.514s-.517-.547-2.706-1.011c-4.837-1.026-8.261.873-9.082 1.5-.679.522-2.292 1.527-2.494 2.753-.203 1.225.674 1.215 1.006 1.143zM22 9.595c-.616-.033-1.217-.109-1.964-.528-.845-.471-1.431-1.09-1.431-1.09s-.578.43-1.336.836c-.759.407-1.709.615-1.709.615s-.322.629-1.893 1.084c-1.138.331-3.917-.192-3.917-.192s-1.494-.526-2.995-.533c-1.5-.006-1.634.821-1.969 1.802-.335.98.646 4.179 2.176 5.916 3.156 3.585 5.484 3.742 6.136 3.822 3.375.417 6.817-.31 8.931-2.544 2.111-2.234 2.639-3.805 2.947-4.873.312-1.067.344-1.741.403-2.68.063-.937-.178-2.543-.178-2.543s-1.14 1.016-3.201.908zM4.72 15.938c-.926-1.802-.988-3.021-.988-3.021L2.323 11.58c-.166-.138-.796-.537-1.327-.171-.37.255-.408.612-.44 1.003-.034.392.493 1.084.493 1.084.562.709 1.779 1.715 3.671 2.442zM6.142 18.123l-.73-.987s-.21-.028-1.479-.497c-1.076-.396-1.342-.731-2.114-.918-.807-.193-1.07.242-1.194.426-.123.182-.292.588.241 1.127.534.541 1.963.709 2.662.801.699.088 2.614.048 2.614.048zM6.31 18.967c-.275.022-.707-.012-1.327.104-.592.109-.767.453-.801.671-.036.215.002.577.412.84.408.26.833.194 1.061.172.229-.024.944-.28 1.155-.367.209-.089.962-.483.962-.483l-.962-.978s-.224.017-.5.041zM14.963 23.045a2.19 2.19 0 0 0-1.41 2.208.312.312 0 0 0 .133.239c.076.048.471-.146.672-.236.203-.09.856-.441 1.822-.434.752-.018 2.184.65 2.184.65.22.088.312-.123.313-.291 0-.914-.312-1.299-.655-1.638-.568-.563-1.823-1.016-3.059-.498z"/><path d="M25.268 2.515c-.185-.198-.403-.401-.83-.455-.431-.053-.72.13-.746.145-.023.016-.236.116-.233.354.004.238.116.3.194.378.082.078.287.085.422.021a.547.547 0 0 1 .348-.038c.073.021.384.216.126.473-.23.3-.877.149-1.484 0a5.18 5.18 0 0 1-1.03-.428c-.566-.303-1.09-.665-1.09-.665s.013.589-.069 1.335a8.376 8.376 0 0 1-.603 2.247c-.285.662-.543.979-.643 1.104-.097.126-.281.336-.281.336s.478.459.683.584c.209.123.606.433 1.407.599.802.168 1.377.077 2-.085.625-.161 1.392-.753 1.412-.776.021-.024.094-.056.074-.128a12.18 12.18 0 0 0-.562-1.457 8.872 8.872 0 0 0-.589-1.017c-.267-.393-.53-.71-.53-.71s.287.042.553.075c.267.033.718-.018 1.04-.173.323-.155.596-.534.646-.844.055-.308-.032-.678-.215-.875zm-2.997 4.201a.677.677 0 0 1-.687-.667c0-.369.306-.668.687-.668.375 0 .682.299.682.668a.677.677 0 0 1-.682.667z"/></g></svg>