<svg xmlns="http://www.w3.org/2000/svg" width="16" height="16" viewBox="0 0 16 16"><g fill="#D4D4D4"><path d="M3.896 3.644c.213-.045.832-.459 1.808-.952.975-.492 2.403-.472 3.437-.196 1.036.276 1.614.97 1.614.97s-1.238-.379-2.39-.379c-1.296 0-2.398.213-3.146.869-.959.909-.03.895.284.871.313-.026.534-.079 1.522-.217s1.883-.34 2.804.382c1.816-.767 1.842-1.174 2.26-1.905.416-.731.305-2.249.305-2.249s-.33-.35-1.732-.647c-3.096-.657-5.287.559-5.812.96-.436.333-1.469.977-1.599 1.762-.128.784.433.777.645.731zM13.759 5.821c-.394-.021-.778-.07-1.256-.338-.54-.302-.915-.698-.915-.698s-.37.275-.856.536c-.485.261-1.094.394-1.094.394s-.206.402-1.21.694c-.729.212-2.508-.123-2.508-.123s-.956-.337-1.917-.342c-.96-.004-1.045.525-1.26 1.153-.215.627.413 2.674 1.392 3.787 2.02 2.294 3.51 2.395 3.927 2.446 2.16.267 4.362-.197 5.716-1.628 1.35-1.43 1.688-2.435 1.885-3.119.199-.683.221-1.114.259-1.715.041-.6-.113-1.627-.113-1.627s-.731.649-2.05.58zM2.701 9.879c-.593-1.152-.633-1.932-.633-1.932l-.901-.856c-.106-.088-.509-.343-.85-.109-.236.163-.26.392-.281.642-.022.25.315.694.315.694.36.453 1.139 1.098 2.35 1.561zM3.611 11.279l-.467-.632s-.134-.019-.946-.318c-.689-.253-.859-.469-1.353-.587-.516-.124-.685.155-.764.272-.078.116-.187.376.155.721.342.346 1.256.454 1.704.512.445.058 1.671.032 1.671.032zM3.718 11.819c-.175.015-.452-.007-.849.065-.379.071-.49.291-.513.43-.023.137.001.37.264.537.261.166.532.125.679.11.146-.016.604-.179.739-.235.134-.057.616-.31.616-.31l-.616-.624-.32.027zM9.256 14.429a1.401 1.401 0 0 0-.902 1.414.196.196 0 0 0 .084.152c.049.031.301-.094.431-.151.129-.057.548-.282 1.166-.277.482-.01 1.397.417 1.397.417.141.056.2-.079.201-.187 0-.584-.2-.83-.42-1.047-.362-.361-1.166-.652-1.957-.321z"/><path d="M15.85 1.29a.809.809 0 0 0-.531-.291c-.274-.035-.459.083-.477.092-.016.01-.151.074-.15.227.003.152.075.191.125.242.053.05.185.054.27.014s.178-.037.224-.024c.047.013.245.138.08.302-.148.192-.561.096-.949 0a3.237 3.237 0 0 1-.66-.274c-.361-.194-.696-.426-.696-.426s.008.377-.045.855a5.336 5.336 0 0 1-.385 1.438c-.183.424-.347.626-.411.707-.062.081-.18.215-.18.215s.304.293.435.373c.134.079.388.277.901.384.512.108.88.049 1.279-.054.4-.103.89-.482.904-.497.013-.016.06-.036.047-.083a7.951 7.951 0 0 0-.359-.933 5.92 5.92 0 0 0-.376-.65c-.171-.251-.341-.455-.341-.455s.185.027.355.048c.171.021.458-.011.666-.111.206-.1.38-.342.413-.541.035-.196-.021-.432-.139-.558zm-1.917 2.688a.432.432 0 0 1-.439-.427c0-.236.195-.428.439-.428.239 0 .436.191.436.428a.433.433 0 0 1-.436.427z"/></g></svg>