<?xml version="1.0" encoding="UTF-8"?><!DOCTYPE svg PUBLIC "-//W3C//DTD SVG 1.1//EN" "http://www.w3.org/Graphics/SVG/1.1/DTD/svg11.dtd"><svg xmlns="http://www.w3.org/2000/svg"><defs><style>.cls-1{fill:#6c6c6c;fill-rule:evenodd}</style><style>.cls-1{fill:#6c6c6c;fill-rule:evenodd}</style><style>.cls-1{fill:#6c6c6c;fill-rule:evenodd}</style><style>.cls-1{fill:#6c6c6c;fill-rule:evenodd}</style><style>.cls-1{fill:#6c6c6c;fill-rule:evenodd}</style><style>.cls-1{fill-rule:evenodd}</style></defs><symbol id="facebook" viewBox="0 0 500 500"><path d="M398.006 28h-296.01C61.144 28 28 61.136 28 102.009v295.983C28 438.857 61.116 472 101.996 472H250V277.75h-55.5v-55.5H250v-41.625c0-38.292 31.084-69.375 69.376-69.375h69.374v55.5h-69.374c-7.655 0-13.874 6.219-13.874 13.875v41.625h76.311l-13.874 55.5h-62.437V472h92.504C438.858 472 472 438.857 472 397.992V102.009C472 61.136 438.884 28 398.006 28z"/></symbol><symbol id="german" viewBox="0 0 444 266.4"><path d="M0 0h444v266.4H0z"/><path fill="#D00" d="M0 88.8h444v177.601H0z"/><path fill="#FFCE00" d="M0 177.6h444v88.801H0z"/></symbol><symbol id="icon_adduser" viewBox="0 0 14 14"><style>.st0{fill-rule:evenodd;clip-rule:evenodd;fill:#1d1d1b}</style><path class="st0" d="M9.3 7.2c1.4 0 2.5-1.1 2.5-2.5s-1.1-2.5-2.5-2.5-2.5 1.1-2.5 2.5C6.7 6 7.9 7.2 9.3 7.2zm2.2 1.1H7c-1.4 0-2.5 1.1-2.5 2.5v.7c0 .2.1.3.2.4.1.1.2.1.3.1h8.5c.3 0 .5-.2.5-.5v-.7c0-1.4-1.1-2.5-2.5-2.5zM4.8 5.8H2.7v-2H2v2H0v.7h2v2.1h.7V6.4h2.1v-.6z"/></symbol><symbol id="icon_cart" viewBox="0 0 60 60"><path d="M35.993 29.614a1.355 1.355 0 1 0 0 0zm2.312-.187a.643.643 0 1 1-1.285.001.643.643 0 0 1 1.285-.001z"/><path d="M47.305 12.788h-7.222V7.545c0-3.407-3.074-6.179-6.853-6.179h-6.463c-3.779 0-6.853 2.772-6.853 6.179v5.243h-6.745l-2.504 44.846h38.67l-2.03-44.846zM21.914 7.545c0-2.304 2.177-4.179 4.853-4.179h6.463c2.676 0 4.853 1.875 4.853 4.179V12.5H21.914V7.545zm18.385 23.676c-.063.054-1.035.779-2.44.779-1.686 0-2.703-.99-3.323-1.803.448-.609 1.178-1.725 1.178-3.525 0-.55-.11-1.069-.241-1.542 1.545.899 2.609 1.46 3.489 1.46l.001-.003c.346 0 .657-.192.657-.46 0-.202-.198-.4-.397-.4-.207 0-.193.104-.391.104a.26.26 0 0 1-.247-.247c0-.127.188-.358.595-.358.506 0 .944.319.944.896 0 .719-.722.969-1.164.969-.396 0-.712-.095-.957-.16.901 1.054 1.83 2.186 2.296 4.29zM28.625 27.34c-3.58 0-5.202 2.114-6.1 2.114l-.001-.002c-.303 0-.706-.199-.706-.734 0-1.827 3.673-4.84 8.371-4.84 2.319 0 3.875.658 4.629.93.113.322.373 1.073.373 1.867 0 3.392-2.84 4.741-3.556 4.914 0-.333-.622-.903-2.248-.903-1.476 0-4.245.533-4.563.53-.32-.008-.67-.081-.67-.452 0-.619 1.563-2.174 5.373-2.174 1.887 0 2.83.356 3.507.546-.529-.536-1.829-1.796-4.409-1.796zm-10.598 6.965c.556 0 .836.241 2.654 2.133.158.826.59 1.785 1.064 2.651v.002c-3.304-1.106-4.598-2.899-4.598-3.711 0-.532.335-1.075.88-1.075zm-.907 5.174c0-.517.365-.896.825-.896.546 0 .754.138 1.754.644.738.373 1.685.664 2.725.955.115.174.429.568.565.731-.15.019-.752.065-1.434.065-2.185.001-4.435-.408-4.435-1.499zm4.545 4.037c-.432 0-1.1-.25-1.1-.871 0-.559.547-.799 1.032-.815.592-.022 1.585-.103 2.012-.183v-.006c.212.219.63.625.782.771-.736.479-1.954 1.104-2.726 1.104zm10.226 4.405c-1.645 0-2.43 1.248-2.43.259 0-1.283 1.088-2.201 2.43-2.201 1.338 0 2.424.918 2.426 2.201-.001.991-.784-.259-2.426-.259zm.873-3.894v1.568s-.348-.13-.871-.13c-.555 0-.935.134-.935.134v-1.396c-3.144 0-4.781-1.096-5.734-1.773.475-4.238 3.739-7.693 7.615-7.693 3.494 0 5.452 2.99 5.851 5.262-1.18 1.687-2.775 3.303-5.926 4.028zm6.343-4.688c-.465-2.063-2.43-5.133-6.229-5.133-4.159 0-7.631 3.635-8.146 7.844-.765-.716-3.652-3.72-3.652-6.771 0-1.379.549-2.422 1.825-2.422.82 0 3.672.828 5.49.828.948 0 1.774-.266 2.104-.469.385-.232.662-.557.975-1 .793-.199 1.961-.795 2.701-1.594a4.513 4.513 0 0 0 3.688 1.9c1.328 0 2.216-.486 2.558-.724v.002h.002c.044.218.173 1.084.17 2.095 0 2.25-.589 3.985-1.486 5.444z"/></symbol><symbol id="icon_done" viewBox="0 0 14 14"><path fill-rule="evenodd" clip-rule="evenodd" fill="#626873" d="M2.862 6.311l2.53 2.759 5.746-6.897 1.379 1.38-7.125 8.275L1.483 7.92l1.379-1.609z"/></symbol><symbol id="icon_form" viewBox="0 0 14 14"><path fill-rule="evenodd" clip-rule="evenodd" d="M11 13H3a1 1 0 0 1-1-1V3a1 1 0 0 1 1-1h2v1h4V2h2a1 1 0 0 1 1 1v9a1 1 0 0 1-1 1zm-7-3h5V9H4v1zm6-5H4v1h6V5zm0 2H4v1h6V7zM5 1h4v1H5V1z"/></symbol><symbol id="icon_gift" viewBox="0 16 16 16"><path d="M3.26 25.17h10.48v7.33H3.26zm6.5-4.64c.6-.18 1.1-.47 1.56-.86.64-.6 1.34-1.8.9-2.6-.2-.35-.7-.7-1.2-.53-.53.18-.88.57-1.24.95-.5.5-.9 1-1.23 1.6-.34-.6-.75-1.2-1.23-1.7-.36-.4-.7-.8-1.25-1-.48-.18-.98.2-1.18.52-.5.8.2 2 .8 2.6.4.4.9.7 1.5.85H1.5v3h14v-3H9.77zm.2-1.8c.2-.26.4-.5.62-.74.1-.2.22-.3.33-.4.2-.2.4-.5.5-.1.1.5-.4 1.2-.8 1.5-.3.3-.8.5-1.2.62.2-.38.45-.73.7-1.06zm-4.2-1.15c.02-.36.3-.05.43.08l.3.33c.2.2.4.4.6.7l.6 1c-.5-.1-.9-.3-1.28-.6-.4-.4-.88-1-.8-1.6z"/></symbol><symbol id="icon_heart" viewBox="0 0 14 14"><path fill-rule="evenodd" clip-rule="evenodd" d="M11.465 3.085c.062.061.116.129.172.196.351.399.556.897.571 1.44.003.048.014.093.014.141 0 .042-.01.08-.012.121l-.012.119a2.461 2.461 0 0 1-.719 1.525c-1.283 1.723-4.414 5.015-4.701 4.985-.312-.031-4.344-4.75-4.344-4.75-.019-.03-.03-.058-.048-.088a2.602 2.602 0 0 1-.608-1.662c0-.192.022-.378.062-.559.03-.163.081-.312.142-.455l.01-.022c.056-.127.12-.246.194-.356a2.62 2.62 0 0 1 1.317-1.064c.189-.079.355-.126.463-.137s.217-.017.328-.021c.037-.002.072-.011.109-.011.031 0 .062.008.093.009a2.9 2.9 0 0 1 .34.034c.052.009.103.016.154.028.103.024.208.056.314.098.385.142.727.366 1.002.658.793.678.984.473 1.285.142.168-.185.547-.57 1.094-.821.071-.034.143-.063.217-.09.046-.016.093-.029.141-.043.116-.035.234-.062.357-.079l.037-.005c.103-.013.204-.031.311-.031.654 0 1.245.259 1.688.673.008.009.019.017.029.025z"/></symbol><symbol id="icon_home" viewBox="0 0 16 16"><g fill="#414141"><path d="M3.151 10.054v4.73c0 .116.1.216.223.216h4.255v-2.842l1.712.011V15h3.267c.123 0 .223-.1.223-.247v-4.729L7.993 6.158l-4.842 3.896z"/><path d="M13.812 7.86L7.991 3l-5.82 4.86a.6.6 0 0 0 .035.871.66.66 0 0 0 .87 0l4.916-3.992 4.915 3.992a.656.656 0 0 0 .906 0 .6.6 0 0 0-.001-.871z"/></g></symbol><symbol id="icon_lock" viewBox="0 0 24 24"><path d="M18 8h-1V6c0-2.76-2.24-5-5-5S7 3.24 7 6v2H6c-1.1 0-2 .9-2 2v10c0 1.1.9 2 2 2h12c1.1 0 2-.9 2-2V10c0-1.1-.9-2-2-2zm-6 9c-1.1 0-2-.9-2-2s.9-2 2-2 2 .9 2 2-.9 2-2 2zm3.1-9H8.9V6c0-1.71 1.39-3.1 3.1-3.1 1.71 0 3.1 1.39 3.1 3.1v2z"/></symbol><symbol id="icon_login" viewBox="0 0 14 14"><path fill-rule="evenodd" clip-rule="evenodd" d="M10.5 10.875h-2v2.25l-6-2.25v-10l.467.175A.98.98 0 0 1 3.5.875h7a1 1 0 0 1 1 1v8a1 1 0 0 1-1 1zm-4-3.5a.5.5 0 0 0 1 0v-1a.5.5 0 0 0-1 0v1zm4-4.5a1 1 0 0 0-1-1H5.166L8.5 3.125v6.75h1a1 1 0 0 0 1-1v-6z"/></symbol><symbol id="icon_menu" viewBox="12.5 28.5 25 25"><g fill="none" stroke="#42464D" stroke-width="3" stroke-linecap="round" stroke-miterlimit="10"><path d="M16 40.958h18M16 48.5h18M16 33.5h18"/></g></symbol><symbol id="icon_music" viewBox="0 0 489.164 489.164"><path d="M159.582 75.459v285.32c-14.274-10.374-32.573-16.616-52.5-16.616-45.491 0-82.5 32.523-82.5 72.5s37.009 72.5 82.5 72.5 82.5-32.523 82.5-72.5V168.942l245-60.615v184.416c-14.274-10.374-32.573-16.616-52.5-16.616-45.491 0-82.5 32.523-82.5 72.5s37.009 72.5 82.5 72.5 82.5-32.523 82.5-72.5V0l-305 75.459z"/></symbol><symbol id="icon_personalize" viewBox="0 0 24 24"><path d="M3 17.25V21h3.75L17.81 9.94l-3.75-3.75L3 17.25zM20.71 7.04a.996.996 0 0 0 0-1.41l-2.34-2.34a.996.996 0 0 0-1.41 0l-1.83 1.83 3.75 3.75 1.83-1.83z"/><path d="M0 0h24v24H0z" fill="none"/></symbol><symbol id="icon_play" viewBox="0 0 24 24"><path d="M10 16.5l6-4.5-6-4.5v9zM12 2C6.48 2 2 6.48 2 12s4.48 10 10 10 10-4.48 10-10S17.52 2 12 2zm0 18c-4.41 0-8-3.59-8-8s3.59-8 8-8 8 3.59 8 8-3.59 8-8 8z"/></symbol><symbol id="icon_play_filled" viewBox="0 0 24 24"><path d="M12 2C6.48 2 2 6.48 2 12s4.48 10 10 10 10-4.48 10-10S17.52 2 12 2zm-2 14.5v-9l6 4.5-6 4.5z"/></symbol><symbol id="icon_player_next" viewBox="0 0 14 9"><path id="icon_player_next" class="cls-1" d="M361 238.5v8.009a.477.477 0 1 1-.954 0v-3.754l-6.308 3.754v-4l-6.729 4V238.5l6.729 4v-4l6.308 3.754V238.5a.477.477 0 1 1 .954 0z" transform="translate(-347 -238)"/></symbol><symbol id="icon_player_pause" viewBox="0 0 11 18"><path id="icon_player_pause" class="cls-1" d="M315.44 234.483v17.035a.486.486 0 0 1-.487.484h-2.467a.487.487 0 0 1-.489-.484v-17.035a.487.487 0 0 1 .489-.482h2.467a.486.486 0 0 1 .487.482zm7.074-.482h-2.467a.486.486 0 0 0-.487.482v17.035a.486.486 0 0 0 .487.484h2.467a.487.487 0 0 0 .489-.484v-17.035a.487.487 0 0 0-.489-.483z" transform="translate(-312 -234)"/></symbol><symbol id="icon_player_play" viewBox="0 0 17 19"><path id="icon_player_play" class="cls-1" d="M309 232.991v19l17-9.5z" transform="translate(-309 -233)"/></symbol><symbol id="icon_player_previous" viewBox="0 0 14 9"><path id="icon_player_previous" class="cls-1" d="M270 246.5v-8a.477.477 0 1 1 .954 0v3.754l6.308-3.754v4l6.729-4v8l-6.729-4v4l-6.308-3.754v3.754a.477.477 0 1 1-.954 0z" transform="translate(-270 -238)"/></symbol><symbol id="icon_player_volume" viewBox="0 0 14 11.062"><path id="icon_player_volume" class="cls-1" d="M431 237.691v9.62c0 .714-.444.907-.985.429l-2.7-2.385a2.456 2.456 0 0 1-.412-.488h-2.111a.788.788 0 0 1-.793-.779v-3.174a.791.791 0 0 1 .793-.782h2.108a2.56 2.56 0 0 1 .412-.486l2.7-2.385c.542-.478.988-.285.988.43zm4.073 1.461a.46.46 0 0 0-.624-.154.442.442 0 0 0-.157.612 5.536 5.536 0 0 1 0 5.781.443.443 0 0 0 .157.613.466.466 0 0 0 .233.063.46.46 0 0 0 .391-.217 6.42 6.42 0 0 0-.002-6.698zm-2.383.734a.442.442 0 0 0-.158.612 3.839 3.839 0 0 1 0 4.006.442.442 0 0 0 .157.612.461.461 0 0 0 .624-.154 4.719 4.719 0 0 0 0-4.921.459.459 0 0 0-.625-.155zm3.73-2.606a.458.458 0 0 0-.628-.134.441.441 0 0 0-.136.617 8.642 8.642 0 0 1 0 9.476.442.442 0 0 0 .136.617.46.46 0 0 0 .628-.134 9.521 9.521 0 0 0-.002-10.442z" transform="translate(-424 -236.969)"/></symbol><symbol id="icon_remove" viewBox="0 0 8.75 8.719"><path id="Close_2" data-name="Close 2" class="cls-1" d="M170.808 135.628l-2.955 2.955 2.87 2.87-1.414 1.415-2.871-2.868-2.955 2.955-1.414-1.414 2.955-2.956-2.955-2.955 1.414-1.414 2.955 2.955 2.956-2.955z" transform="translate(-162.062 -134.219)"/></symbol><symbol id="icon_search" viewBox="-0.5 15.5 30 30"><path stroke="#000" stroke-miterlimit="10" d="M11.454 36.13c-4.773 0-8.653-3.883-8.653-8.653 0-4.773 3.88-8.654 8.653-8.654 4.771 0 8.651 3.881 8.651 8.654 0 4.77-3.88 8.653-8.651 8.653zm0-15.304a6.653 6.653 0 0 0-6.647 6.646c0 3.667 2.982 6.648 6.647 6.648s6.645-2.981 6.645-6.648a6.652 6.652 0 0 0-6.645-6.646z"/><path d="M24.824 42.178c-.353 0-.706-.136-.973-.406l-7.249-7.241a1.391 1.391 0 0 1 0-1.952 1.383 1.383 0 0 1 1.948 0l7.246 7.249a1.376 1.376 0 0 1-.972 2.35z"/></symbol><symbol id="icon_search_old" viewBox="0 0 14 14"><path d="M6.2 10.699a4.47 4.47 0 0 1-4.464-4.465A4.469 4.469 0 0 1 6.2 1.769a4.47 4.47 0 0 1 4.464 4.465A4.47 4.47 0 0 1 6.2 10.699zm0-7.895c-1.891 0-3.43 1.538-3.43 3.429s1.539 3.43 3.43 3.43c1.891 0 3.429-1.539 3.429-3.43S8.092 2.804 6.2 2.804z"/><path d="M11.748 12.232a.514.514 0 0 1-.366-.152L8.656 9.356a.518.518 0 1 1 .732-.733l2.726 2.726a.518.518 0 0 1-.366.883z"/></symbol><symbol id="icon_share" viewBox="0 0 24 24"><path d="M0 0h24v24H0z" fill="none"/><path d="M18 16.08c-.76 0-1.44.3-1.96.77L8.91 12.7c.05-.23.09-.46.09-.7s-.04-.47-.09-.7l7.05-4.11c.54.5 1.25.81 2.04.81 1.66 0 3-1.34 3-3s-1.34-3-3-3-3 1.34-3 3c0 .24.04.47.09.7L8.04 9.81C7.5 9.31 6.79 9 6 9c-1.66 0-3 1.34-3 3s1.34 3 3 3c.79 0 1.5-.31 2.04-.81l7.12 4.16c-.05.21-.08.43-.08.65 0 1.61 1.31 2.92 2.92 2.92 1.61 0 2.92-1.31 2.92-2.92s-1.31-2.92-2.92-2.92z"/></symbol><symbol id="icon_shops" viewBox="0 0 14 14"><path fill-rule="evenodd" clip-rule="evenodd" d="M7 1C4.468 1 2.414 3.014 2.414 5.5 2.414 7.983 7 13 7 13s4.586-5.017 4.586-7.5C11.586 3.014 9.533 1 7 1zm0 7.5c-1.688 0-3.058-1.345-3.058-3 0-1.657 1.37-3 3.058-3 1.689 0 3.06 1.343 3.06 3 0 1.655-1.371 3-3.06 3zM7 4c-.845 0-1.527.671-1.527 1.5S6.155 6.999 7 6.999c.846 0 1.526-.67 1.526-1.499S7.846 4 7 4z"/></symbol><symbol id="icon_tukan" viewBox="0 0 26 26"><path d="M6.6 6.2c.32-.08 1.3-.73 2.8-1.5 1.53-.76 3.77-.73 5.38-.3 1.62.43 2.52 1.5 2.52 1.5s-1.93-.58-3.73-.58c-2.03 0-3.75.34-4.9 1.36-1.5 1.42-.06 1.4.43 1.36.5-.04.83-.12 2.38-.34 1.54-.2 2.94-.53 4.38.6 2.83-1.2 2.88-1.84 3.53-2.98.6-1.14.4-3.5.4-3.5s-.5-.56-2.7-1.02C12.3-.23 8.9 1.67 8 2.3c-.68.52-2.3 1.53-2.5 2.75-.2 1.23.67 1.22 1 1.14zM22 9.6c-.62-.04-1.22-.1-1.96-.53-.85-.47-1.43-1.1-1.43-1.1s-.5.44-1.3.84c-.7.5-1.7.7-1.7.7s-.3.7-1.9 1.1c-1.1.4-3.9-.2-3.9-.2s-1.5-.5-3-.5-1.6.8-1.9 1.8c-.3 1 .7 4.2 2.2 5.9 3.2 3.6 5.5 3.8 6.2 3.9 3.4.4 6.8-.3 8.96-2.5 2.1-2.23 2.65-3.8 2.96-4.87.3-1.05.3-1.72.4-2.66s-.2-2.56-.2-2.56-1.16 1-3.2.9zM4.72 15.94c-.93-1.8-1-3.02-1-3.02l-1.4-1.34c-.16-.14-.8-.54-1.32-.17-.37.3-.4.7-.44 1-.04.4.5 1.1.5 1.1.55.7 1.77 1.7 3.66 2.5zm1.42 2.18l-.73-.98s-.2-.03-1.4-.5c-1-.4-1.3-.73-2.1-.92-.8-.2-1.1.24-1.2.43-.1.18-.3.6.3 1.12.6.54 2 .7 2.7.8.7.1 2.6.05 2.6.05zm.16.85c-.27.02-.7-.02-1.32.1-.6.1-.76.45-.8.67-.03.22 0 .58.4.84.42.26.85.2 1.07.17.23-.02.95-.28 1.16-.36.3-.1 1-.5 1-.5l-.9-1h-.5zm8.66 4.08c-1.36.57-1.45 1.8-1.4 2.2 0 .1.05.2.12.24.08 0 .48-.2.68-.3s.85-.5 1.82-.5c.75 0 2.18.6 2.18.6.22.1.32-.1.32-.3 0-.9-.32-1.3-.66-1.68-.57-.57-1.82-1-3.06-.5zm10.3-20.53c-.2-.2-.4-.4-.82-.46-.43-.05-.72.13-.75.14-.1.02-.3.12-.3.36s.1.3.2.38c0 .08.3.08.4.02.1-.06.3-.06.3-.04.1.02.4.22.1.47-.3.3-.9.1-1.5 0-.3-.1-.7-.3-1-.5-.6-.3-1.1-.7-1.1-.7s0 .6-.1 1.3c-.1.7-.3 1.6-.6 2.2-.3.6-.58 1-.68 1.1l-.28.3s.46.44.66.6c.2.1.6.4 1.4.6.8.13 1.4.04 2-.1.67-.18 1.4-.77 1.46-.8 0-.03.1-.06.07-.13 0-.05-.3-.9-.57-1.43-.1-.27-.33-.67-.56-1-.3-.4-.55-.7-.55-.7l.56.06c.3.06.7 0 1.1-.15s.6-.5.64-.82c.04-.33-.05-.7-.2-.9zm-3 4.2a.67.67 0 0 1-.67-.67c-.1-.37.3-.67.6-.67.4 0 .7.3.7.67 0 .37-.3.67-.7.67z"/></symbol><symbol id="icon_user" viewBox="0 0 14 14"><style>.st0{fill:#1d1d1b}</style><path class="st0" d="M9.8 4.4C9.8 6 8.5 7.2 7 7.2 5.5 7.2 4.2 6 4.2 4.4c0-1.5 1.2-2.8 2.8-2.8 1.5.1 2.8 1.3 2.8 2.8zM11.9 11.8v-.7c0-1.3-1.1-2.4-2.4-2.4h-5c-1.3 0-2.4 1.1-2.4 2.4v.7c0 .3.3.2.3.2h9.2c.2.1.3-.1.3-.2z"/><path class="st0" d="M2.3 12.3c-.1 0-.2 0-.3-.1-.1-.1-.2-.2-.2-.4v-.7c0-1.5 1.2-2.7 2.7-2.7h4.9c1.5 0 2.7 1.2 2.7 2.7v.7c0 .3-.2.5-.5.5H2.3c.1 0 .1 0 0 0zm.1-.5h9.2v-.7c0-1.2-1-2.1-2.1-2.1h-5c-1.2 0-2.1.9-2.1 2.1v.7z"/></symbol><symbol id="icon_zoom" viewBox="0 0 30 30"><g fill="none" stroke="#42464D" stroke-width="2" stroke-miterlimit="10" stroke-linecap="round"><path d="M25 25l-6-6"/><circle cx="13.2" cy="13.2" r="8.2"/></g><path fill="#42464D" d="M12 9h2v8h-2z"/><path fill="#42464D" d="M9 12h8v2H9z"/></symbol><symbol id="instagram" viewBox="0 0 500 500"><path d="M420.78 215.825h-38.653c2.816 10.932 4.479 22.358 4.479 34.165 0 75.458-61.158 136.617-136.604 136.617S113.395 325.448 113.395 249.99c0-11.807 1.67-23.233 4.486-34.165h-38.65v187.86c0 9.415 7.645 17.061 17.087 17.061h307.363c9.454 0 17.103-7.638 17.103-17.061v-187.86h-.004zm0-119.531c0-9.423-7.648-17.07-17.095-17.07h-51.218c-9.435 0-17.079 7.647-17.079 17.075v51.243c0 9.425 7.641 17.075 17.079 17.075h51.218c9.446 0 17.095-7.65 17.095-17.075v-51.25.002zm-170.782 68.32c-47.161 0-85.387 38.222-85.387 85.38 0 47.148 38.226 85.392 85.387 85.392 47.157 0 85.391-38.243 85.391-85.39 0-47.16-38.234-85.382-85.391-85.382M420.78 472H79.224C50.943 472 28 449.055 28 420.746V79.22C28 50.931 50.938 28 79.224 28H420.78C449.07 28 472 50.931 472 79.22v341.526C472 449.055 449.07 472 420.78 472"/></symbol></svg>