<svg xmlns="http://www.w3.org/2000/svg" width="16" height="16" viewBox="0 0 16 16"><g fill="#68BE00"><path d="M3.896 3.644c.213-.045.832-.459 1.808-.952.975-.492 2.403-.472 3.437-.196 1.036.276 1.614.97 1.614.97s-1.237-.379-2.39-.379c-1.296 0-2.398.213-3.146.869-.959.909-.03.895.284.871.313-.026.534-.079 1.522-.217s1.883-.34 2.804.382c1.815-.767 1.842-1.174 2.26-1.905.416-.731.306-2.249.306-2.249s-.33-.35-1.732-.647c-3.097-.657-5.288.559-5.813.96-.436.333-1.469.977-1.599 1.762-.128.784.433.777.645.731zM13.759 5.821c-.394-.021-.778-.07-1.256-.338-.54-.302-.915-.698-.915-.698s-.37.275-.855.536-1.094.394-1.094.394-.207.402-1.21.694c-.73.212-2.509-.123-2.509-.123s-.956-.337-1.917-.342c-.96-.004-1.045.525-1.26 1.153-.215.627.413 2.674 1.392 3.787 2.02 2.294 3.51 2.396 3.927 2.446 2.161.268 4.362-.197 5.715-1.628 1.351-1.431 1.688-2.435 1.886-3.119.198-.683.221-1.114.259-1.715.041-.6-.113-1.627-.113-1.627s-.731.649-2.05.58zM2.701 9.879c-.593-1.152-.633-1.932-.633-1.932l-.901-.856c-.106-.088-.509-.343-.85-.109-.236.163-.26.392-.281.642-.022.25.315.694.315.694.36.453 1.139 1.098 2.35 1.561zM3.611 11.279l-.467-.633s-.134-.019-.946-.317c-.689-.253-.859-.47-1.353-.587-.516-.124-.685.154-.764.272-.078.116-.187.377.155.721.342.347 1.256.455 1.704.513.445.057 1.671.031 1.671.031zM3.718 11.818c-.175.016-.452-.006-.849.065-.379.071-.49.291-.513.431-.023.137.001.369.264.537.261.166.532.125.679.109.146-.016.604-.179.739-.234.134-.058.616-.311.616-.311l-.616-.624c0 .002-.143.014-.32.027zM9.256 14.43a1.4 1.4 0 0 0-.902 1.413.196.196 0 0 0 .084.152c.049.03.301-.095.431-.151.129-.057.548-.281 1.166-.277.482-.01 1.396.418 1.396.418.142.056.2-.08.201-.188 0-.584-.199-.83-.42-1.047-.36-.361-1.165-.652-1.956-.32z"/><path d="M15.85 1.29c-.117-.126-.258-.256-.531-.291s-.459.083-.477.092c-.016.01-.15.074-.15.227.004.152.076.191.125.242.054.05.186.054.271.014s.179-.037.224-.024c.047.013.246.138.08.302-.147.192-.561.096-.949 0a3.232 3.232 0 0 1-.659-.274c-.361-.194-.696-.426-.696-.426s.008.377-.045.855a5.336 5.336 0 0 1-.385 1.438c-.184.424-.348.626-.411.707-.062.081-.181.215-.181.215s.303.293.434.373c.134.079.389.277.9.384.513.108.881.049 1.279-.054.4-.103.891-.482.904-.497.014-.016.061-.036.047-.083a8.147 8.147 0 0 0-.359-.933 5.895 5.895 0 0 0-.375-.65c-.172-.251-.342-.455-.342-.455s.186.027.356.048c.171.021.458-.011.666-.111.206-.1.38-.342.413-.541.034-.196-.021-.432-.139-.558zm-1.916 2.688a.432.432 0 0 1-.439-.427c0-.236.195-.428.439-.428.238 0 .436.191.436.428a.434.434 0 0 1-.436.427z"/></g></svg>