<?xml version="1.0" encoding="utf-8"?>
<!-- Generator: Adobe Illustrator 15.1.0, SVG Export Plug-In . SVG Version: 6.00 Build 0)  -->
<!DOCTYPE svg PUBLIC "-//W3C//DTD SVG 1.1//EN" "http://www.w3.org/Graphics/SVG/1.1/DTD/svg11.dtd">
<svg version="1.1" id="Ebene_1" xmlns="http://www.w3.org/2000/svg" xmlns:xlink="http://www.w3.org/1999/xlink" x="0px" y="0px"
	 width="85.7px" height="124px" viewBox="0 0 85.7 124" enable-background="new 0 0 85.7 124" xml:space="preserve">
<g>
	<path fill="#5C2483" d="M32.1,115c0.4,0.4,0.9,1,0.5,1.6c-0.2,0.6-0.9,0.7-1.4,0.9C27.5,116.3,29.5,115.2,32.1,115 M34.3,91
		c0.6,0.6,1.5,1.7,2.6,1.3c0.2,0.8,1.5,0.9,1.5,1.6l-1.1,0.7c0.9,1.1,0.2,2.6,0,3.8c-0.7,0.4-1.5,0.5-2.3,0.2c-1.3,0.4-4.1-1.2-5-2
		c-0.5-1.5,0.8-2.2,1.5-3.3c2,0.7,0.7,3.9,3.3,4.1c1-0.8,0.7-2.4,1.8-3c0-0.7-0.7-0.6-1.1-0.9c-1.1,1-2-1.6-2.3-1.7
		C33.4,91.6,33.7,91,34.3,91 M37.1,87.9c0.6,1.1,2-0.5,2.7,0.9c-0.4,0.8-0.2,2.4-1.4,2.3C37.3,90.4,37.5,89,37.1,87.9 M35.6,87.6
		c1,0.5-0.4,1.2,0.2,2c-0.5,0.8-1-0.2-1.3-0.6C34.4,88.3,35,87.9,35.6,87.6 M8.5,83.1c2,1.4,4.8,1.3,6.3,3.5
		c1.6,1.1,4.9,0.2,5.7,0.7c0,0.4-0.6,0.5-0.4,0.9c0.2,0.5,0.5,0.2,0.9,0c1.3,0.9,0.7,3.5,2.8,4.4l0.2-0.1c-0.2,0.7,0,1.4,0.2,2
		c-1.5,1.8-2.4,4.1-3.9,6c0.1,1.2-1.1,3.3-1,3.7c0.4,0.1,0.8-0.2,1.1-0.3c0.8-0.9,2.2-0.9,3.1-1.7c2.8-0.1,4.7-5.9,7.7-2.3
		c1.3,0.4,3.5-0.4,4.1,1.3c0.7,0.4,0.1,5.2,0.9,6.5c1.3,2.4,5,3.9,2.8,7.4c-0.8,0-0.8-4.1-3-5c-1-1.5-1.7-3.4-1.6-5.3
		c-1-1.1,0.4-2.2-0.2-3.2c-1.5-1.1-3.6-0.6-5.1-1.6c-1.1,0.4-1.5,1.7-2.6,2c-1.8,2.3-4.8,2.8-7,4.6c-0.4-0.2-1,0-1.4,0.2
		c-0.7-0.1-1.4,1.4-1.9,0.3c0.7-0.9-0.3-2.5,0.9-3.3c-0.3-1.9,1.9-2.6,1.6-4.6c0.6-0.4,0.7-1.3,1-2c0.3,0.1,0.5-0.3,0.7-0.5
		c0.4-1.3,1.7-1.5,1.7-3.1c0-2.3-2.1-3-2.2-5c-1-1-3.7,0.4-5-0.4c-1-0.6-2.7-1.3-3.3-2.3c-0.8,0-1.6-0.8-2.3-0.1
		c-1.1-0.4-2.4-0.9-3-2C7.3,84,8,83.6,8.5,83.1 M31.8,83.1c0.6,0.2,1.2-0.3,1.7,0.4c0.6-0.2,0.9,0.5,1.2,0.9
		c-0.5,0.8,1.3,2.2-0.3,2.1c-0.7-0.4-0.9,1.3-1.1,0.2c-0.2-1,1.5-0.9,0.7-2.2c-0.7-1.1-1.5-0.2-2.4,0C30.1,84.5,31,83.4,31.8,83.1
		 M28.5,84.3c0.6,0.2,1.4-0.1,1.8,0.6c-0.4,0.7,0.4,1.1,0.7,1.5c0.7,1.1,0.4,2,0.4,3.2c-0.5,0.5-0.8-0.3-1.3-0.3
		c-1.3-1.3-2-2.9-1.9-4.7L28.5,84.3z M26.4,85.3c0.2,1.5-0.3,2-1.5,2.8c0.1,1,0.6,2,1.6,2.3c0.7-0.3,1.7,0.2,2.4-0.4
		c0.6,0.2,0.9,1,0.6,1.6c-0.5,0.9-1.6,0.7-2.3,1.3c-1,0-1.6-0.7-2.4-1c0-0.8-0.7-1.3-0.9-2.2c-1.1-0.7-0.8-2-1.5-3
		c-0.2-0.5,0.3-0.8,0.6-1.2C24.1,85.6,25.3,85,26.4,85.3 M5.8,90.5c0.7,0.5,2.2,0.1,2,1.4c-0.2,0.9-1.1,1.8-2,1.9
		C3.9,92.5,4.9,92.5,5.8,90.5 M25.4,108c-0.4,0.4-1.1,0.3-0.9,1.1c2,2.5,1.5,1.4,2.4-0.3C26.9,108.1,26,107.9,25.4,108 M34.7,81.3
		c-0.5,0.1-1.2-0.2-1.5,0.3c-2.4,0.2-4.4,1.9-6.8,1.8c-2.4,1.3-8.5,1.4-11,0.5c-2.3-0.8-5.1-2.6-7.6-1.8c-2.5-0.4-4.6,2-4.8,4
		c-0.1,0.6,0.4,0.4,0.4,0.9c0.8,0.5,1.3-0.9,1.9-1.1c1.7-0.8,3.8,1.1,5.1,2c1.3,0.1,1.6,2.6,2.7,1.4c0.2,0.2,3.6,1.2,4.3,0.7
		c0.3,0,0.5,0.1,0.7,0.3c-1.2,1.8-3.6,0.6-4.3,1.5c0.7,1,3.5,0.7,3.6,0.9c0.5,0,1.1-0.6,1.5,0c-1.5,2.8-5.7,2.2-7.8,0.4
		c-0.2-0.5,0.2-1,0.1-1.6c-0.2-1.5-1.7-2.2-3-2.8c-0.9-0.4-1.7,0.1-2.4,0.4c-0.8-0.2-1.4,0.9-2,1.3c-1.6,1,0,2.6-0.4,4
		C4,95.3,4.8,96.2,6.1,96c1.7,0.7,2.9-1.8,4.4-0.4c0.9-0.1,1.9,0.2,2.8,0.3c0.2,0.2,0.5-0.4,0.7,0c0.5-0.1,0.9-0.2,1.4,0l0.6-0.1
		c1.2,1.6,2-1.1,3.3-0.3c-0.3,0.8-0.8,1.7-1.6,2.1c-0.3,1.6-1.5,2.9-1.7,4.5c-0.9,1.3-0.6,3.5-2.8,3.4c-1.1,1.6-3.3,0.8-4.6,2
		c-3,0.4-3.2-2.9-4-4.7c0.4-1.3,1.4-2.2,2.4-3c1.2,0,2.3,0.3,2.9,1.5c-0.9,0.7-2.4-0.3-3,0.9c-0.4,0.7,0,1.4,0.3,2
		c0.6,1.1,1.7,0.8,2.8,0.9c0.7-0.7,1.1-0.6,1.5-1.6c0.9-2-0.4-3-1.3-4.7c-1.5-1.2-3.3-0.2-5-0.3C5.1,98.5,5,98.8,5.1,99
		c-1,0.4-1.5,1.5-1.8,2.4c0.5,1.4-0.5,2.6-0.3,3.6c0.1,0.5,1.1,1.7,1.4,2.2c1.2,1.8,4.3,0.5,6.1,1.3c0.8-1.4,2-0.5,3.3-1
		c0.4,0,0.7-0.9,1.2-0.4c-1.6,2.1-4.1,4.8-7,3.3c-1,0.7-2.3-0.1-3.4,0.3c-1.1,0.4-2,1.8-1.1,2.8c0.6,0.8,0.8-0.2,1.5-0.1
		c0.5-0.3,1.1-0.1,1.7-0.1c0.5,0.5,1.1-0.6,1.6,0c-1,1.1-2.2,1.9-3.2,2.8c-0.6,0-1.1,0.2-1.4,0.7c-0.2,1-0.3,2,0.1,3
		c0.5,0.2,1.3,0.4,1.7-0.2c2-0.2,2.3-2.4,2.8-4c0.6-0.3,0.9-1.1,1.7-1.3c0,0.4,0.5,0.4,0.4,0.9c-1.1,1.3-0.4,2.8-0.3,4.3
		c0.8,0.3,1.7,0.1,2.4-0.3c0.3-0.5,0.5-1.3,0.3-1.9c0.6-0.7,0-1.7,0.4-2.6c0-0.9-0.5-1.8-0.9-2.6c0.6-0.9,0.8-2,1.7-2.6
		c0.5,0,1.2-0.5,1.7-0.3c-0.6,1-0.1,2.2-0.4,3.3c0,1.3,0.1,2.7,0.7,3.9c-0.2,1.3,1.4,1.7,2,2.6c1.3-0.3,1.5,1.8,2.7,0.9
		c0.9-0.7,3-0.9,3.3-2.1c1.3-0.8,1.5-2.3,1.6-3.7c0-1.7-1.5-2.6-2.6-3.7c-1.2-0.3-2.7,0.4-3.6,1.2c-0.9,0.8,0.1,3.7,1.8,3.5
		c0.9-0.1,1-1.2,1.6-1.8c0.8,0.3,1.1,1.3,1.1,2c-0.7,0.4-0.3,1.6-1.3,1.8c-1.6-0.2-2.4,1.1-3.9-0.1c-1.3-1-2-1.8-2-3.6
		c0-0.9-0.1-2.7,0.5-3.4c0.1-0.2,0.5-0.4,0.7-0.2c2.5-2.2,7.5-3.8,10-6.1l0.3,0.3c-0.1,0.8-0.2,6.2,0,6.5c0.2,1.9-0.9,3.7-0.7,5.6
		l0.2,0.1c-0.4,0.9,0,1.8,0.4,2.6c0.4,0.1,0.6,0.7,1,0.4c1.3,0.4,3.3,0,4.1-1.2c0.9-1.2,0.2-3.7-0.2-5c-0.6-0.3-1.1-0.9-1.7-0.9
		c-0.9-0.8-1.9-1.3-1.7-2.7c-1.2-1.3-0.2-3-0.3-4.6c0.2-0.7,1.2-1.3,0.9-2.2l0.4-0.2c0.8,0.5-0.8,5.3,0.7,6.7c1.4-0.2-0.3-1.3,0.4-2
		c-0.5-1.2,0.3-2.3,0.3-3.5c0.1-0.2,0.3-0.3,0.6-0.3c0.6,1.6,0.3,3.6,1.4,5c0.1,1.4,0.7,2.4,1.6,3.4c0.2,2.4,3.9,3.3,0.1,5.9
		c0.4,0.4,0.4,1.1,1,1.3c1.1-0.4,3-0.2,3.3-1.7c0.6-3.2,1-5.9-0.1-9c-0.3-0.7-1.1-1.5-0.9-2.3c-0.2-0.7-1-5-0.7-5.4
		c-0.3-2,0.5-3.9,0.9-5.9c-0.7-1,0.7-1.5,0.9-2.4c0.2-1.4,1.8-4.3,0.6-5.7c-0.2-0.2-0.7-0.2-0.9,0c-1.6-0.5-2.8-1.8-4-2.9
		C35.6,83,35.4,82,34.7,81.3 M13.5,97.4c-0.8,0.1-1.1,1-1.1,1.7c0.2,0.6,0.9,0.9,1.5,1c0.4-0.6,1.7-0.3,1.4-1.4
		C15.1,98.1,14.1,97.7,13.5,97.4 M76.3,90.4c0.4-0.5,1-1,1.6-0.5c0.6,0.2,0.7,0.9,0.9,1.4C77.5,94.9,76.5,93.1,76.3,90.4 M52.3,88.2
		c0.6-0.7,1.8-1.5,1.3-2.6c0.8-0.2,0.9-1.5,1.6-1.5l0.7,1.1c1.1-0.9,2.6-0.2,3.8,0c0.4,0.7,0.5,1.5,0.2,2.3c0.4,1.3-1.2,4-2,5
		c-1.5,0.5-2.2-0.9-3.3-1.5c0.7-1.9,3.9-0.7,4.1-3.3c-0.8-1-2.4-0.7-3-1.8c-0.7,0-0.6,0.7-0.9,1.1c1,1.1-1.6,2-1.7,2.3
		C52.8,89,52.3,88.8,52.3,88.2 M49.2,85.4c1.1-0.6-0.5-2.1,0.9-2.7c0.8,0.4,2.4,0.2,2.3,1.4C51.7,85.3,50.2,85,49.2,85.4 M48.9,86.9
		c0.5-1,1.2,0.3,2-0.2c0.8,0.5-0.2,1-0.6,1.3C49.6,88.1,49.1,87.5,48.9,86.9 M44.4,114c1.4-2,1.3-4.8,3.5-6.3c1.1-1.7,0.2-5,0.7-5.7
		c0.3,0,0.5,0.6,0.9,0.4c0.5-0.2,0.2-0.5,0-0.9c0.9-1.3,3.5-0.7,4.4-2.8l-0.1-0.2c0.6,0.2,1.4,0,2-0.2c1.8,1.5,4.1,2.4,6,3.9
		c1.2-0.1,3.3,1.1,3.7,1c0.1-0.4-0.2-0.8-0.3-1.1c-0.9-0.8-0.9-2.2-1.7-3.1c-0.1-2.8-5.9-4.7-2.3-7.7c0.4-1.3-0.4-3.5,1.3-4.1
		c0.4-0.7,5.2-0.2,6.5-0.9c2.4-1.3,3.9-5,7.4-2.8c0,0.7-4.2,0.8-5,3c-1.5,1-3.4,1.7-5.3,1.6c-1.1,1-2.3-0.4-3.2,0.2
		c-1.1,1.5-0.6,3.5-1.6,5.1c0.4,1.1,1.7,1.5,2,2.6c2.2,1.8,2.8,4.8,4.6,7c-0.2,0.4,0,1,0.2,1.4c-0.1,0.7,1.4,1.3,0.3,1.9
		c-1-0.7-2.5,0.3-3.3-0.9c-1.9,0.3-2.6-1.9-4.6-1.6c-0.5-0.6-1.3-0.7-2-1c0.1-0.4-0.3-0.5-0.5-0.7c-1.3-0.4-1.5-1.7-3.1-1.7
		c-2.3,0-3,2.1-5,2.2c-1.1,1,0.4,3.6-0.4,5c-0.6,1-1.3,2.7-2.3,3.3c0,0.8-0.9,1.6-0.1,2.3c-0.4,1.1-0.9,2.4-2,3
		C45.2,115.2,44.9,114.6,44.4,114 M44.4,90.7c0.2-0.6-0.3-1.3,0.4-1.7c-0.2-0.6,0.5-0.9,0.9-1.2c0.8,0.4,2.1-1.3,2.1,0.3
		c-0.4,0.7,1.3,0.9,0.2,1.1c-1,0.2-0.9-1.5-2.2-0.7c-1.2,0.7-0.2,1.5,0,2.4C45.8,92.4,44.7,91.4,44.4,90.7 M45.6,94
		c0.2-0.6-0.1-1.4,0.6-1.8c0.7,0.3,1.1-0.4,1.5-0.7c1.1-0.7,1.9-0.4,3.2-0.4c0.5,0.5-0.3,0.8-0.3,1.3c-1.3,1.3-2.9,2-4.7,1.9
		L45.6,94z M46.6,96.1c1.5-0.2,2,0.3,2.8,1.5c1-0.1,2-0.6,2.3-1.6c-0.3-0.8,0.2-1.7-0.4-2.4c0.2-0.7,1-0.9,1.6-0.6
		c0.8,0.5,0.7,1.6,1.3,2.3c0,0.9-0.7,1.6-1,2.4c-0.8,0-1.4,0.7-2.2,0.9c-0.7,1.1-2,0.8-3,1.5c-0.5,0.2-0.9-0.3-1.2-0.6
		C46.9,98.3,46.3,97.2,46.6,96.1 M51.7,116.7c0.5-0.7,0.1-2.2,1.4-2c0.9,0.2,1.7,1.1,1.9,2C53.8,118.6,53.7,117.6,51.7,116.7
		 M69.3,97.2c0.4,0.4,0.3,1.1,1.1,0.9c2.5-2,1.4-1.5-0.3-2.4C69.4,95.6,69.2,96.6,69.3,97.2 M42.6,87.9c0,0.5-0.2,1.1,0.3,1.5
		c0.2,2.4,1.9,4.4,1.8,6.8c1.3,2.3,1.4,8.5,0.5,11c-0.8,2.2-2.6,5.1-1.8,7.6c-0.4,2.5,2,4.6,4,4.8c0.5,0.1,0.4-0.4,0.9-0.4
		c0.5-0.9-0.9-1.3-1.1-1.9c-0.8-1.8,1.1-3.8,2-5.1c0.1-1.3,2.6-1.7,1.4-2.7c0.2-0.2,1.2-3.7,0.7-4.3c0-0.3,0.1-0.6,0.3-0.7
		c1.8,1.2,0.6,3.6,1.5,4.3c1-0.7,0.7-3.5,0.9-3.6c0-0.5-0.6-1.1,0-1.5c2.8,1.5,2.2,5.7,0.4,7.8c-0.5,0.2-1-0.2-1.6-0.1
		c-1.5,0.2-2.2,1.7-2.8,3c-0.4,0.8,0.1,1.7,0.4,2.4c-0.2,0.7,0.9,1.4,1.3,2c1,1.6,2.6,0,4,0.4c0.8-0.8,1.7-1.6,1.5-2.8
		c0.7-1.7-1.8-2.9-0.4-4.4c-0.1-1,0.2-1.9,0.3-2.8c0.2-0.3-0.4-0.5,0-0.7c-0.1-0.5-0.2-0.9,0-1.4l-0.1-0.6c1.6-1.2-1.2-2-0.3-3.3
		c0.8,0.3,1.7,0.8,2.1,1.6c1.6,0.3,2.9,1.4,4.5,1.7c1.3,0.9,3.5,0.6,3.4,2.8c1.6,1.1,0.7,3.3,2,4.6c0.4,3-2.9,3.2-4.7,4
		c-1.3-0.4-2.2-1.4-3-2.4c0-1.2,0.3-2.3,1.5-2.9c0.7,0.9-0.4,2.4,0.9,3c0.7,0.4,1.4,0,2-0.3c1.1-0.6,0.8-1.8,0.9-2.8
		c-0.7-0.7-0.6-1.1-1.6-1.5c-2-0.9-3,0.4-4.7,1.3c-1.2,1.5-0.2,3.3-0.3,5c0.2,0.2,0.4,0.3,0.7,0.3c0.4,1,1.5,1.5,2.4,1.8
		c1.3-0.5,2.6,0.5,3.6,0.3c0.5-0.1,1.7-1.1,2.2-1.4c1.8-1.2,0.5-4.4,1.3-6.1c-1.4-0.8-0.5-2.1-1-3.3c0-0.4-1-0.7-0.4-1.2
		c2.1,1.5,4.8,4.1,3.3,7c0.6,1-0.1,2.2,0.3,3.4c0.4,1.1,1.8,1.9,2.8,1.1c0.8-0.6-0.2-0.9-0.1-1.5c-0.3-0.5-0.1-1.2-0.1-1.7
		c0.5-0.5-0.6-1.2,0-1.6c1.1,1,1.9,2.2,2.8,3.2c0,0.6,0.2,1.1,0.7,1.4c1,0.2,2,0.3,3-0.1c0.2-0.5,0.4-1.3-0.2-1.7
		c-0.2-2-2.4-2.4-4-2.8c-0.3-0.7-1.1-1-1.3-1.7c0.4,0,0.4-0.5,0.9-0.4c1.3,1.1,2.8,0.4,4.3,0.3c0.3-0.8,0.1-1.7-0.3-2.4
		c-0.6-0.3-1.3-0.6-1.9-0.3c-0.7-0.6-1.8,0-2.6-0.4c-0.9,0-1.8,0.5-2.6,0.9c-0.9-0.6-1.9-0.8-2.6-1.7c0-0.5-0.5-1.2-0.3-1.7
		c1,0.6,2.2,0,3.3,0.4c1.3,0,2.7-0.1,3.9-0.7c1.3,0.2,1.7-1.4,2.6-1.9c-0.4-1.3,1.8-1.5,0.9-2.7c-0.8-0.9-0.9-3-2.1-3.3
		c-0.8-1.3-2.3-1.5-3.7-1.6c-1.7-0.1-2.6,1.5-3.7,2.6c-0.3,1.2,0.4,2.7,1.2,3.6c0.8,0.9,3.7-0.1,3.5-1.8c-0.1-1-1.3-1-1.8-1.6
		c0.3-0.8,1.2-1.1,2-1.1c0.4,0.7,1.6,0.3,1.8,1.3c-0.3,1.6,1.1,2.4-0.1,3.9c-1.1,1.3-1.8,2-3.6,2c-0.9,0-2.7,0.1-3.4-0.5
		c-0.2-0.2-0.4-0.5-0.2-0.7c-2.3-2.5-3.8-7.5-6.1-10l0.3-0.3c0.8,0.1,6.2,0.2,6.5,0c1.9-0.2,3.7,0.9,5.6,0.7l0.1-0.2
		c0.9,0.4,1.8,0,2.6-0.4c0.1-0.4,0.7-0.6,0.4-1c0.4-1.3,0-3.3-1.2-4.1c-1.2-0.9-3.7-0.2-5,0.2c-0.3,0.5-0.9,1-0.9,1.7
		c-0.8,0.9-1.3,1.9-2.7,1.7c-1.3,1.2-3.1,0.2-4.6,0.3c-0.7-0.2-1.3-1.2-2.2-0.9l-0.2-0.4c0.4-0.9,5.3,0.8,6.7-0.7
		c-0.2-1.4-1.3,0.3-2-0.4c-1.2,0.4-2.3-0.4-3.5-0.3c-0.2-0.1-0.3-0.3-0.3-0.6c1.6-0.6,3.5-0.4,5-1.4c1.4-0.1,2.4-0.7,3.4-1.6
		c2.4-0.3,3.3-3.9,5.9-0.1c0.4-0.4,1.1-0.4,1.3-1c-0.4-1.1-0.2-3-1.7-3.3c-3.2-0.6-5.9-1-9,0.1c-0.7,0.2-1.5,1-2.3,0.9
		c-0.7,0.2-5,1-5.4,0.7c-2,0.3-3.9-0.6-5.9-0.8c-1.1,0.7-1.5-0.7-2.4-0.9c-1.4-0.2-4.4-1.8-5.7-0.6c-0.2,0.2-0.2,0.6,0,0.8
		c-0.6,1.6-1.8,2.8-2.9,4C44.2,86.9,43.2,87.1,42.6,87.9 M58.7,109c0.1,0.8,1,1.1,1.7,1.1c0.6-0.3,0.9-0.9,1-1.5
		c-0.6-0.4-0.3-1.7-1.4-1.4C59.3,107.4,58.9,108.4,58.7,109"/>
	<path fill="#5C2483" d="M67.6,64.3h-19V26.6c0-7.1,3.3-10.6,10-10.6c2.8,0,5,1,6.6,3c1.6,2,2.5,4.9,2.5,8.5V64.3z M34.8,64.3H16.7
		V26.5c0-5.6,3-8.4,8.9-8.4c2.8,0,5.1,0.8,6.7,2.4c1.7,1.6,2.5,3.7,2.5,6.4V64.3z M24.7,6.8c-6.5,0-11.8,1.8-15.8,5.4
		c-4,3.6-6,8.6-6,14.9v48.8h78.5V27.6c0-15.5-7.1-23.3-21.2-23.3c-8.7,0-15.1,3.2-19.4,9.5C36.7,9.1,31.4,6.8,24.7,6.8"/>
</g>
</svg>
