<?xml version="1.0" encoding="utf-8"?>
<!-- Generator: Adobe Illustrator 15.1.0, SVG Export Plug-In . SVG Version: 6.00 Build 0)  -->
<!DOCTYPE svg PUBLIC "-//W3C//DTD SVG 1.1//EN" "http://www.w3.org/Graphics/SVG/1.1/DTD/svg11.dtd">
<svg version="1.1" id="Schere" xmlns="http://www.w3.org/2000/svg" xmlns:xlink="http://www.w3.org/1999/xlink" x="0px" y="0px"
	 width="18px" height="28px" viewBox="0 0 18 28" enable-background="new 0 0 18 28" xml:space="preserve">
<path fill-rule="evenodd" clip-rule="evenodd" fill="#5C2483" d="M10.6,23c-0.1,1.6-1.2,3.6-2.3,3.5c-1.1-0.1-1.4-2.1-1.3-3.8
	c0.1-1.6,0.7-2.9,1.8-2.8S10.8,21.4,10.6,23z M5.3,18.5c0.9,0.7,0.4,2-0.6,3.3c-1,1.3-2.7,2.5-3.5,1.8c-0.9-0.7-0.3-2.8,0.7-4.1
	C2.9,18.2,4.5,17.8,5.3,18.5z M10.6,0.3c0,0-1.5,1.7-1.9,2.8C8.4,4.2,7.4,14.4,7.3,15.6c-0.1,0.1-0.2,0.2-0.2,0.2
	c-0.2,0.2-0.9,1.5-1,2.1C6.1,17.9,6,17.8,6,17.7c-1.1-0.9-3.2-0.3-4.6,1.4c-1.4,1.7-1.9,4.2-0.8,5.2c1.1,0.9,3.3-0.3,4.7-2
	c0.8-0.9,1.2-1.8,1.3-2.8c0-0.8,0.6-1.5,1.1-1.9c0.2,0.7,0,1.6-0.5,2.2c-0.6,0.7-0.9,1.7-1,2.9c-0.2,2.2,0.6,4.6,2,4.7
	c1.5,0.1,2.9-2.1,3-4.3c0.2-2.2-0.9-4-2.4-4.1c-0.1,0-0.2,0-0.3,0c0.3-0.5,0.7-1.9,0.7-2.2c0,0,0-0.1,0-0.3c0.6-0.7,7.2-9,7.7-10
	c0.5-1.1,0.6-3.4,0.6-3.4s-4.9,6-7.9,9.7C10,7.9,10.6,0.3,10.6,0.3z"/>
</svg>
