<?xml version="1.0" encoding="utf-8"?>
<!-- Generator: Adobe Illustrator 16.0.4, SVG Export Plug-In . SVG Version: 6.00 Build 0)  -->
<!DOCTYPE svg PUBLIC "-//W3C//DTD SVG 1.1//EN" "http://www.w3.org/Graphics/SVG/1.1/DTD/svg11.dtd">
<svg version="1.1" id="Ebene_1" xmlns="http://www.w3.org/2000/svg" xmlns:xlink="http://www.w3.org/1999/xlink" x="0px" y="0px"
	 width="24px" height="24px" viewBox="0 0 24 24" enable-background="new 0 0 24 24" xml:space="preserve">
<polygon fill="none" stroke="#FF4444" stroke-width="2" stroke-miterlimit="10" points="12,3 17,12.001 22,21 12,21 2,21 7,12.001 
	"/>
<g>
	<rect x="0.167" y="8.75" fill="none" width="23.833" height="11.834"/>
	<path fill="#FF4444" d="M11.371,17.248c0-0.531,0.234-0.797,0.703-0.797c0.227,0,0.401,0.068,0.524,0.205s0.185,0.334,0.185,0.592
		c0,0.25-0.062,0.444-0.188,0.583s-0.299,0.208-0.521,0.208c-0.203,0-0.371-0.062-0.504-0.185S11.371,17.529,11.371,17.248z
		 M12.391,15.508h-0.615l-0.299-6.205h1.213L12.391,15.508z"/>
</g>
</svg>
