<?xml version="1.0" encoding="utf-8"?>
<!-- Generator: Adobe Illustrator 16.0.4, SVG Export Plug-In . SVG Version: 6.00 Build 0)  -->
<!DOCTYPE svg PUBLIC "-//W3C//DTD SVG 1.1//EN" "http://www.w3.org/Graphics/SVG/1.1/DTD/svg11.dtd">
<svg version="1.1" id="Ebene_1" xmlns="http://www.w3.org/2000/svg" xmlns:xlink="http://www.w3.org/1999/xlink" x="0px" y="0px"
	 width="24px" height="24px" viewBox="0 0 24 24" enable-background="new 0 0 24 24" xml:space="preserve">
<path fill-rule="evenodd" clip-rule="evenodd" fill="#42464D" d="M12,23C5.925,23,1,18.075,1,12S5.925,1,12,1s11,4.925,11,11
	S18.075,23,12,23z M12,3c-4.971,0-9,4.029-9,9s4.029,9,9,9s9-4.029,9-9S16.971,3,12,3z M11,18c-1,0-1-1-1-1l1-5c0,0,0-1-1-1
	c0,0-1,0-1-1h3c0,0,1,0,1,1s-1,4-1,5s1,1,1,1h1C14,17,14,18,11,18z M13,8c-0.553,0-1-0.447-1-1s0.447-1,1-1s1,0.447,1,1
	S13.553,8,13,8z"/>
<g>
</g>
<g>
</g>
<g>
</g>
<g>
</g>
<g>
</g>
<g>
</g>
<g>
</g>
<g>
</g>
<g>
</g>
<g>
</g>
<g>
</g>
<g>
</g>
<g>
</g>
<g>
</g>
<g>
</g>
</svg>
