<?xml version="1.0" encoding="utf-8"?>
<!-- Generator: Adobe Illustrator 16.0.4, SVG Export Plug-In . SVG Version: 6.00 Build 0)  -->
<!DOCTYPE svg PUBLIC "-//W3C//DTD SVG 1.1//EN" "http://www.w3.org/Graphics/SVG/1.1/DTD/svg11.dtd">
<svg version="1.1" id="Ebene_1" xmlns="http://www.w3.org/2000/svg" xmlns:xlink="http://www.w3.org/1999/xlink" x="0px" y="0px"
	 width="20px" height="20px" viewBox="0 0 20 20" enable-background="new 0 0 20 20" xml:space="preserve">
<path fill="none" stroke="#42464D" stroke-miterlimit="10" d="M16.188,13.846l-0.072-0.154c-0.219-0.504-2.896-1.275-3.117-1.288
	l-0.18,0.014c-0.365,0.073-0.766,0.412-1.611,1.146c-0.951-0.431-2.254-1.582-2.867-2.261c-0.664-0.734-1.494-1.971-1.791-2.894
	c0.962-0.837,1.363-1.2,1.389-1.604c0.014-0.218-0.445-2.915-0.93-3.188l-0.146-0.09C6.556,3.33,6.09,3.036,5.572,3.14
	c-0.125,0.025-0.247,0.074-0.36,0.144C4.863,3.497,4.014,4.075,3.627,4.831c-0.239,0.472-0.348,4.768,2.935,8.398
	c3.245,3.591,7.245,3.746,7.847,3.626l0.016-0.003l0.053-0.016c0.811-0.285,1.5-1.043,1.759-1.356
	C16.711,14.901,16.371,14.214,16.188,13.846z"/>
<g>
</g>
<g>
</g>
<g>
</g>
<g>
</g>
<g>
</g>
<g>
</g>
<g>
</g>
<g>
</g>
<g>
</g>
<g>
</g>
<g>
</g>
<g>
</g>
<g>
</g>
<g>
</g>
<g>
</g>
</svg>
