<?xml version="1.0" encoding="utf-8"?>
<!-- Generator: Adobe Illustrator 16.0.4, SVG Export Plug-In . SVG Version: 6.00 Build 0)  -->
<!DOCTYPE svg PUBLIC "-//W3C//DTD SVG 1.1//EN" "http://www.w3.org/Graphics/SVG/1.1/DTD/svg11.dtd">
<svg version="1.1" id="Ebene_1" xmlns="http://www.w3.org/2000/svg" xmlns:xlink="http://www.w3.org/1999/xlink" x="0px" y="0px"
	 width="20px" height="20px" viewBox="0 0 20 20" enable-background="new 0 0 20 20" xml:space="preserve">
<g>
	<g>
		<g>
			<path fill="#231815" d="M13.762,17.189c-0.508,0.535-1.187,0.893-1.978,0.893c-1.582,0-2.826-1.309-2.825-2.971l0.056-8.976
				c0.002-2.259,1.754-4.22,4.014-4.219c2.146-0.001,3.955,1.9,4.012,4.219l0.001,6.419c-0.001,0.235-0.169,0.413-0.397,0.416
				c-0.226-0.003-0.395-0.181-0.395-0.416V6.138c0-1.902-1.413-3.389-3.221-3.388c-1.811,0-3.223,1.485-3.223,3.387l0.002,8.914
				c0,1.188,0.902,2.139,1.977,2.08c1.129-0.002,2.033-0.953,1.979-2.08V6.969c0-0.475-0.34-0.831-0.791-0.832
				c-0.453,0-0.793,0.356-0.793,0.832l0.002,5.586c-0.002,0.236-0.171,0.414-0.396,0.416c-0.225,0-0.396-0.18-0.396-0.416V6.97
				c0-0.952,0.68-1.664,1.584-1.664c0.902-0.001,1.58,0.712,1.58,1.663v8.082C14.552,15.883,14.271,16.654,13.762,17.189z"/>
		</g>
	</g>
</g>
</svg>
