<?xml version="1.0" encoding="utf-8"?>
<!-- Generator: Adobe Illustrator 16.0.4, SVG Export Plug-In . SVG Version: 6.00 Build 0)  -->
<!DOCTYPE svg PUBLIC "-//W3C//DTD SVG 1.1//EN" "http://www.w3.org/Graphics/SVG/1.1/DTD/svg11.dtd">
<svg version="1.1" id="Ebene_1" xmlns="http://www.w3.org/2000/svg" xmlns:xlink="http://www.w3.org/1999/xlink" x="0px" y="0px"
	 width="20px" height="20px" viewBox="0 0 20 20" enable-background="new 0 0 20 20" xml:space="preserve">
<g id="user">
	<g>
		<path fill="#42464D" d="M10,12.285c2.375,0,4-1.719,4-4V6c0-2.281-1.625-4-4-4C7.627,2,6,3.719,6,6v2.285
			C6,10.566,7.627,12.285,10,12.285z M7.144,6c0-1.605,1.187-2.857,2.856-2.857c1.672,0,2.857,1.252,2.857,2.857v2.285
			c0,1.607-1.186,2.857-2.857,2.857c-1.67,0-2.856-1.25-2.856-2.857V6z M14.059,10.564l-0.142-0.047l-0.07,0.127
			c-0.145,0.262-0.319,0.518-0.519,0.758l-0.164,0.196l0.253,0.069c1.847,0.508,3.323,3.374,3.4,5.194H3.183
			c0.076-1.82,1.386-4.687,3.231-5.194l0.253-0.069l-0.163-0.196c-0.2-0.24-0.375-0.496-0.52-0.758l-0.07-0.127l-0.141,0.047
			C3.461,11.332,2,14.518,2,16.862V18h16v-1.138C18,14.518,16.371,11.332,14.059,10.564z"/>
	</g>
</g>
</svg>
