<?xml version="1.0" encoding="utf-8"?>
<!-- Generator: Adobe Illustrator 16.0.4, SVG Export Plug-In . SVG Version: 6.00 Build 0)  -->
<!DOCTYPE svg PUBLIC "-//W3C//DTD SVG 1.1//EN" "http://www.w3.org/Graphics/SVG/1.1/DTD/svg11.dtd">
<svg version="1.1" id="Ebene_1" xmlns="http://www.w3.org/2000/svg" xmlns:xlink="http://www.w3.org/1999/xlink" x="0px" y="0px"
	 width="20px" height="20px" viewBox="0 0 20 20" enable-background="new 0 0 20 20" xml:space="preserve">
<g id="form">
	<g>
		<path fill-rule="evenodd" clip-rule="evenodd" fill="#42464D" d="M6.326,12.483h1.13v-1.104h-1.13V12.483z M6.326,10.275h1.13
			V9.172h-1.13V10.275z M8.587,10.275h4.521V9.172H8.587V10.275z M11.979,2.552H3.5V18h12.435V6.966L11.979,2.552z M11.979,4.916
			l1.837,2.05h-1.837V4.916z M14.805,16.898H4.63V3.654h6.218v4.415h3.957V16.898z M8.587,12.483h3.392v-1.104H8.587V12.483z
			 M8.587,14.69h2.827v-1.103H8.587V14.69z M6.326,14.69h1.13v-1.103h-1.13V14.69z"/>
	</g>
</g>
</svg>
